<svg xmlns="http://www.w3.org/2000/svg" xmlns:xlink="http://www.w3.org/1999/xlink" width="36px" height="40px" viewBox="0 0 36 40" fill='#fff'><path d="M10.261,26.253h21.343c2.42,0,4.395-2.019,4.395-4.493v-9.182c0-0.008,0-0.025,0-0.033c0-0.024,0-0.041,0-0.065 c0-0.017,0-0.032-0.008-0.048c0-0.017-0.008-0.041-0.008-0.057c0-0.017-0.008-0.033-0.008-0.049        c-0.008-0.017-0.008-0.033-0.016-0.057c-0.008-0.016-0.008-0.032-0.016-0.049c-0.008-0.016-0.008-0.033-0.016-0.049 c-0.008-0.016-0.016-0.032-0.024-0.057c-0.008-0.017-0.016-0.033-0.024-0.041c-0.008-0.016-0.016-0.033-0.024-0.049        c-0.008-0.017-0.016-0.024-0.024-0.041c-0.008-0.016-0.023-0.032-0.032-0.049c-0.008-0.017-0.016-0.024-0.032-0.04 c-0.008-0.017-0.024-0.025-0.032-0.041s-0.024-0.024-0.032-0.041c-0.008-0.016-0.024-0.024-0.032-0.033        c-0.016-0.016-0.024-0.024-0.04-0.041c-0.016-0.008-0.024-0.024-0.04-0.032c-0.016-0.007-0.032-0.024-0.047-0.032 c-0.016-0.008-0.024-0.016-0.04-0.024c-0.016-0.008-0.032-0.016-0.048-0.033c-0.016-0.008-0.032-0.017-0.048-0.024        c-0.016-0.008-0.032-0.017-0.048-0.024c-0.016-0.008-0.032-0.017-0.047-0.025c-0.016-0.008-0.032-0.008-0.048-0.016 s-0.04-0.016-0.056-0.016s-0.032-0.008-0.04-0.008c-0.024-0.008-0.04-0.008-0.063-0.008c-0.008,0-0.016-0.009-0.032-0.009 L8.024,7.668V3.81c0-0.04,0-0.081-0.008-0.114c0-0.008,0-0.016-0.008-0.033C8.008,3.639,8,3.614,8,3.59 C7.992,3.566,7.992,3.549,7.984,3.525c0-0.016-0.008-0.024-0.008-0.041C7.968,3.459,7.96,3.435,7.952,3.411 c0-0.008-0.008-0.024-0.008-0.032C7.936,3.354,7.928,3.338,7.912,3.313C7.904,3.305,7.904,3.289,7.896,3.28 C7.888,3.264,7.88,3.248,7.864,3.231c-0.008-0.016-0.016-0.024-0.023-0.04C7.833,3.175,7.825,3.167,7.817,3.15 C7.809,3.134,7.793,3.118,7.785,3.102C7.777,3.093,7.769,3.085,7.761,3.077C7.745,3.061,7.729,3.044,7.713,3.028        C7.705,3.02,7.697,3.012,7.689,3.004C7.674,2.988,7.657,2.972,7.634,2.955C7.625,2.947,7.61,2.939,7.602,2.931        C7.586,2.914,7.57,2.906,7.554,2.89C7.53,2.874,7.506,2.857,7.491,2.849C7.482,2.841,7.474,2.841,7.467,2.833        C7.435,2.817,7.395,2.801,7.363,2.784L1.496,0.26C0.946,0.024,0.317,0.285,0.086,0.847c-0.23,0.562,0.024,1.205,0.573,1.44        l5.207,2.247v4.982v0.79v6.057v5.413v6.839c0,2.279,1.672,4.168,3.83,4.452c-0.391,0.668-0.621,1.45-0.621,2.28        c0,2.45,1.95,4.437,4.339,4.437c2.388,0,4.338-1.995,4.338-4.437c0-0.813-0.215-1.587-0.597-2.239h9.665        c-0.382,0.66-0.597,1.425-0.597,2.239c0,2.45,1.95,4.437,4.338,4.437s4.339-1.995,4.339-4.437c0-2.442-1.951-4.437-4.339-4.437        h-20.3c-1.242,0-2.245-1.034-2.245-2.295v-2.98C8.668,26.026,9.441,26.253,10.261,26.253z M15.61,35.338        c0,1.238-0.987,2.239-2.189,2.239c-1.202,0-2.189-1.01-2.189-2.239c0-1.229,0.987-2.238,2.189-2.238        C14.624,33.1,15.61,34.101,15.61,35.338z M32.758,35.338c0,1.238-0.987,2.239-2.189,2.239s-2.189-1.01-2.189-2.239        c0-1.229,0.987-2.238,2.189-2.238S32.758,34.101,32.758,35.338z M31.604,24.055H10.261c-1.242,0-2.245-1.033-2.245-2.295v-5.413        V10.29V9.882l25.833,3.639v8.23C33.849,23.03,32.838,24.055,31.604,24.055z"></path></svg>